<svg width="21" height="28" viewBox="0 0 21 28" fill="none" xmlns="http://www.w3.org/2000/svg">
<path d="M0.00531242 10.0194C0.00531242 4.48375 4.57406 0 10.2053 0C15.8366 0 20.4053 4.48375 20.4053 10.0194C20.4053 16.3572 14.0197 23.9541 11.3528 26.8494C10.7259 27.5294 9.67938 27.5294 9.0525 26.8494C6.38563 23.9541 0 16.3572 0 10.0194H0.00531242ZM10.2053 13.6C12.0806 13.6 13.6053 12.0753 13.6053 10.2C13.6053 8.32469 12.0806 6.8 10.2053 6.8C8.33 6.8 6.80531 8.32469 6.80531 10.2C6.80531 12.0753 8.33 13.6 10.2053 13.6Z" fill="#242424"/>
</svg>
