<svg width="28" height="34" viewBox="0 0 28 34" fill="none" xmlns="http://www.w3.org/2000/svg">
<path d="M23.4102 17.9671C23.3953 15.1813 24.6302 13.0787 27.1297 11.5302C25.7311 9.48833 23.6185 8.36491 20.8289 8.14478C18.1881 7.93225 15.3018 9.71605 14.2455 9.71605C13.1297 9.71605 10.5707 8.22069 8.56217 8.22069C4.41127 8.28901 0 11.5985 0 18.3315C0 20.3202 0.357068 22.3773 1.0712 24.4951C2.02338 27.2809 5.46015 34.1125 9.0457 33.9986C10.9203 33.953 12.2444 32.6399 14.6844 32.6399C17.0499 32.6399 18.2774 33.9986 20.3677 33.9986C23.983 33.9455 27.0925 27.7363 28 24.9429C23.1498 22.6126 23.4102 18.1113 23.4102 17.9671ZM19.1998 5.50323C21.2306 3.04386 21.0446 0.804611 20.9851 0C19.1924 0.106269 17.1169 1.24487 15.9341 2.64914C14.6323 4.15209 13.8661 6.01181 14.0298 8.10683C15.9713 8.25864 17.7418 7.2415 19.1998 5.50323Z" fill="#F5F3EE"/>
</svg>
