<svg width="26" height="29" viewBox="0 0 26 29" fill="none" xmlns="http://www.w3.org/2000/svg">
<path d="M8.00615 1.40693C7.61115 0.343809 6.58115 -0.218691 5.60115 0.0794343L5.32615 0.163809C2.09615 1.15381 -0.663851 4.67506 0.141149 8.96131C1.99615 18.8051 8.88115 26.5507 17.6311 28.6376C21.4461 29.5488 24.5711 26.4382 25.4511 22.8044L25.5261 22.4951C25.7961 21.3869 25.2911 20.2282 24.3511 19.7894L19.4861 17.5113C18.6611 17.1232 17.7061 17.3932 17.1361 18.1751L15.2061 20.8301C11.6911 18.8669 8.86115 15.5819 7.23615 11.5488L9.44615 9.52381C10.1411 8.88818 10.3761 7.81381 10.0361 6.88006L8.00615 1.40693Z" fill="#242424"/>
</svg>
