<svg width="40" height="40" viewBox="0 0 40 40" fill="none" xmlns="http://www.w3.org/2000/svg">
<path d="M20 0C8.95161 0 0 8.95161 0 20C0 31.0484 8.95161 40 20 40C31.0484 40 40 31.0484 40 20C40 8.95161 31.0484 0 20 0ZM29.2742 13.6048C28.9758 16.7661 27.6694 24.4435 27.0081 27.9839C26.7258 29.4839 26.1774 29.9839 25.6452 30.0323C24.4839 30.1371 23.6048 29.2661 22.4758 28.5242C20.7177 27.371 19.7177 26.6532 18.0161 25.5242C16.0403 24.2258 17.3226 23.5081 18.4435 22.3387C18.7419 22.0323 23.8548 17.379 23.9516 16.9597C23.9677 16.9032 23.9758 16.7097 23.8548 16.6048C23.7339 16.5 23.5645 16.5403 23.4435 16.5645C23.2661 16.6048 20.4516 18.4597 15.0081 22.1371C14.2097 22.6855 13.4839 22.9516 12.8387 22.9355C12.121 22.9194 10.75 22.5323 9.72581 22.2016C8.47581 21.7984 7.47581 21.5806 7.56452 20.8871C7.6129 20.5242 8.10484 20.1613 9.04839 19.7823C14.879 17.2419 18.7661 15.5645 20.7097 14.7581C26.2661 12.4516 27.4194 12.0484 28.1694 12.0323C28.3387 12.0323 28.7016 12.0726 28.9435 12.2661C29.1048 12.4032 29.2016 12.5968 29.2258 12.8065C29.2661 13.0645 29.2742 13.3306 29.2581 13.5968L29.2742 13.6048Z" fill="#242424"/>
</svg>
