<svg width="41" height="40" viewBox="0 0 41 40" fill="none" xmlns="http://www.w3.org/2000/svg">
<path d="M20.5 0C9.1754 0 0 8.95161 0 20C0 31.0484 9.1754 40 20.5 40C31.8246 40 41 31.0484 41 20C41 8.95161 31.8246 0 20.5 0ZM30.0061 13.6048C29.7002 16.7661 28.3611 24.4435 27.6833 27.9839C27.394 29.4839 26.8319 29.9839 26.2863 30.0323C25.096 30.1371 24.195 29.2661 23.0377 28.5242C21.2357 27.371 20.2107 26.6532 18.4665 25.5242C16.4413 24.2258 17.7556 23.5081 18.9046 22.3387C19.2105 22.0323 24.4512 17.379 24.5504 16.9597C24.5669 16.9032 24.5752 16.7097 24.4512 16.6048C24.3272 16.5 24.1536 16.5403 24.0296 16.5645C23.8478 16.6048 20.9629 18.4597 15.3833 22.1371C14.5649 22.6855 13.821 22.9516 13.1597 22.9355C12.424 22.9194 11.0188 22.5323 9.96895 22.2016C8.6877 21.7984 7.6627 21.5806 7.75363 20.8871C7.80323 20.5242 8.30746 20.1613 9.2746 19.7823C15.251 17.2419 19.2353 15.5645 21.2274 14.7581C26.9228 12.4516 28.1048 12.0484 28.8736 12.0323C29.0472 12.0323 29.4192 12.0726 29.6671 12.2661C29.8325 12.4032 29.9317 12.5968 29.9565 12.8065C29.9978 13.0645 30.006 13.3306 29.9895 13.5968L30.0061 13.6048Z" fill="#242424"/>
</svg>
