<svg width="40" height="40" viewBox="0 0 40 40" fill="none" xmlns="http://www.w3.org/2000/svg">
<path d="M35.4892 3.895C34.443 2.98105 30.2088 0.0673581 20.7683 0.0283005C20.7683 0.0283005 9.63905 -0.604433 4.21859 4.11372C1.20357 6.97274 0.140897 11.1675 0.0255686 16.3622C-0.0897602 21.5568 -0.229802 31.29 9.66376 33.9303H9.672L9.66376 37.961C9.66376 37.961 9.59786 39.5936 10.7347 39.9217C12.1021 40.3279 12.9094 39.0859 14.2192 37.7501C14.9359 37.0158 15.9245 35.9379 16.6741 35.1176C23.4455 35.6566 28.6436 34.4224 29.2367 34.2428C30.6042 33.8209 38.3394 32.8835 39.5916 23.1504C40.8931 13.1048 38.9655 6.76183 35.4892 3.895ZM36.6342 22.4161C35.5715 30.5401 29.3026 31.0557 28.1493 31.4072C27.655 31.5556 23.0831 32.6336 17.3414 32.2821C17.3414 32.2821 13.0577 37.1799 11.7232 38.4532C11.2866 38.8672 10.8088 38.8281 10.817 38.0079C10.817 37.4689 10.85 31.3134 10.85 31.3134C2.46395 29.1106 2.95821 20.8226 3.04883 16.4872C3.13945 12.1518 4.00441 8.59754 6.55812 6.20721C11.1466 2.26239 20.5953 2.84826 20.5953 2.84826C28.5777 2.8795 32.4 5.16047 33.2897 5.926C36.2306 8.31632 37.7298 14.0344 36.6342 22.4161ZM25.1837 16.1044C25.2167 16.7762 24.154 16.8231 24.121 16.1513C24.0304 14.4327 23.1819 13.5969 21.4355 13.5032C20.7271 13.4641 20.793 12.4564 21.4932 12.4955C23.7915 12.6127 25.0684 13.8625 25.1837 16.1044ZM26.856 16.9871C26.9384 13.675 24.7554 11.0816 20.6118 10.7926C19.9115 10.7457 19.9857 9.73802 20.6859 9.78489C25.4638 10.113 28.0093 13.2298 27.9187 17.0105C27.9104 17.6823 26.8395 17.6511 26.856 16.9871ZM30.7277 18.0339C30.736 18.7056 29.6651 18.7135 29.6651 18.0417C29.6156 11.6753 25.1425 8.20696 19.7138 8.1679C19.0136 8.16009 19.0136 7.16022 19.7138 7.16022C25.7851 7.19927 30.6701 11.1753 30.7277 18.0339ZM29.7969 25.697V25.7126C28.9072 27.1968 27.2432 28.8372 25.5297 28.3138L25.5132 28.2904C23.7751 27.8295 19.6809 25.8297 17.0942 23.8769C15.7597 22.877 14.5405 21.6975 13.6014 20.5648C12.7529 19.5571 11.8962 18.3619 11.0642 16.9246C9.30953 13.9172 8.92236 12.5736 8.92236 12.5736C8.37043 10.9488 10.0921 9.37088 11.6655 8.52723H11.682C12.4399 8.15228 13.1648 8.27726 13.6508 8.83188C13.6508 8.83188 14.6723 9.98799 15.1089 10.5582C15.5208 11.0894 16.0727 11.9409 16.3611 12.4174C16.8636 13.2688 16.5505 14.1359 16.0563 14.4952L15.0677 15.2451C14.5652 15.6279 14.6311 16.3388 14.6311 16.3388C14.6311 16.3388 16.0975 21.5959 21.5756 22.9239C21.5756 22.9239 22.3252 22.9864 22.7289 22.5099L23.5197 21.5725C23.8986 21.1038 24.813 20.8069 25.7109 21.2834C26.9219 21.9318 28.4623 22.9395 29.4838 23.8534C30.0605 24.2987 30.1923 24.9783 29.7969 25.697Z" fill="#242424"/>
</svg>
