<svg width="40" height="40" viewBox="0 0 40 40" fill="none" xmlns="http://www.w3.org/2000/svg">
<path fill-rule="evenodd" clip-rule="evenodd" d="M7.23343 6.94509C11.6334 3.92852 17.0667 5.34479 20 8.77809C22.9334 5.34489 28.3667 3.94514 32.7666 6.94509C35.0997 8.54506 36.566 11.2448 36.666 14.0779C36.8827 20.5446 31.166 25.7285 22.416 33.6619L22.2334 33.8279C20.9668 34.9946 19.0167 34.9945 17.75 33.8445L17.583 33.6951C8.83304 25.7451 3.0997 20.5612 3.33304 14.0945C3.43313 11.2446 4.90018 8.54503 7.23343 6.94509ZM27.4991 8.6277C24.9325 8.62784 22.4331 10.2781 21.5664 12.5613H18.4492C17.5659 10.278 15.0657 8.6277 12.4991 8.6277C9.16599 8.62787 6.66621 11.1276 6.66605 14.4607C6.66605 19.2774 11.8997 24.0274 19.833 31.2107L19.9991 31.3777L20.166 31.2107C28.0993 24.0275 33.333 19.2773 33.333 14.4607C33.3329 11.1275 30.8323 8.6277 27.4991 8.6277Z" fill="#242424"/>
</svg>
