<svg width="30" height="30" viewBox="0 0 30 30" fill="none" xmlns="http://www.w3.org/2000/svg">
<rect width="30" height="30" rx="7" fill="#7D6317" fill-opacity="0.5"/>
<path d="M8.5 18H10L14.1906 21.725C14.3906 21.9031 14.6469 22 14.9125 22C15.5125 22 16 21.5125 16 20.9125V9.0875C16 8.4875 15.5125 8 14.9125 8C14.6469 8 14.3906 8.09688 14.1906 8.275L10 12H8.5C7.67187 12 7 12.6719 7 13.5V16.5C7 17.3281 7.67187 18 8.5 18ZM20.7844 10.3438C20.4625 10.0813 19.9906 10.1313 19.7281 10.4531C19.4656 10.775 19.5156 11.2469 19.8375 11.5094C20.8531 12.3344 21.5 13.5906 21.5 15C21.5 16.4094 20.8531 17.6656 19.8375 18.4938C19.5156 18.7563 19.4687 19.2281 19.7281 19.55C19.9875 19.8719 20.4625 19.9188 20.7844 19.6594C22.1344 18.5594 23 16.8813 23 15.0031C23 13.125 22.1344 11.4469 20.7844 10.3469V10.3438ZM18.8937 12.6719C18.5719 12.4094 18.1 12.4594 17.8375 12.7813C17.575 13.1031 17.625 13.575 17.9469 13.8375C18.2844 14.1125 18.5 14.5313 18.5 15C18.5 15.4688 18.2844 15.8875 17.9469 16.1656C17.625 16.4281 17.5781 16.9 17.8375 17.2219C18.0969 17.5438 18.5719 17.5906 18.8937 17.3313C19.5656 16.7781 20 15.9406 20 15C20 14.0594 19.5656 13.2219 18.8906 12.6719H18.8937Z" fill="#F5F3EE"/>
</svg>
