<svg width="318" height="87" viewBox="0 0 318 87" fill="none" xmlns="http://www.w3.org/2000/svg" xmlns:xlink="http://www.w3.org/1999/xlink">
<g filter="url(#filter0_d_645_6463)">
<path d="M10 1.50616e-05C7.23858 1.51705e-05 5 2.23859 5 5.00002L5 72C5 74.7614 7.23858 77 10 77L307.996 77C311.92 77 314.315 72.6876 312.241 69.3571L294.672 41.1429C293.665 39.525 293.665 37.475 294.672 35.8571L312.241 7.64292C314.315 4.3124 311.92 3.15336e-06 307.996 3.30811e-06L10 1.50616e-05Z" fill="#005B33"/>
</g>
<path d="M66.1875 30.625H65.375V40H61.7344V30.625H60.8438L58.4062 40H54L57.9219 28.0625L54.3906 17.25H58.7344L60.9531 26.9844H61.7344V17.25H65.375V26.9844H66.0938L68.2344 17.25H72.5625L69.1094 28.0469L72.9844 40H68.5469L66.1875 30.625ZM85.8511 40C85.747 39.7917 85.6584 39.5469 85.5855 39.2656C85.5126 38.974 85.4553 38.6719 85.4136 38.3594C85.1636 38.6302 84.8772 38.8854 84.5543 39.125C84.2313 39.3542 83.8772 39.5573 83.4918 39.7344C83.0959 39.9115 82.6636 40.0521 82.1949 40.1562C81.7261 40.2604 81.2261 40.3125 80.6949 40.3125C79.8199 40.3125 79.0178 40.1875 78.2886 39.9375C77.5699 39.6875 76.9553 39.3385 76.4449 38.8906C75.924 38.4427 75.5178 37.9115 75.2261 37.2969C74.9449 36.6719 74.8043 36 74.8043 35.2812C74.8043 34.3438 74.9865 33.5156 75.3511 32.7969C75.7157 32.0781 76.2574 31.4844 76.9761 31.0156C77.6324 30.5781 78.4397 30.25 79.398 30.0312C80.3668 29.8021 81.4657 29.6875 82.6949 29.6875H85.273V28.625C85.273 28.1979 85.2053 27.8177 85.0699 27.4844C84.9345 27.151 84.7313 26.8646 84.4605 26.625C84.1793 26.375 83.8303 26.1823 83.4136 26.0469C83.0074 25.9115 82.5334 25.8438 81.9918 25.8438C81.5126 25.8438 81.0907 25.901 80.7261 26.0156C80.372 26.1302 80.0803 26.2917 79.8511 26.5C79.6324 26.6875 79.4709 26.9167 79.3668 27.1875C79.2626 27.4479 79.2105 27.7344 79.2105 28.0469H75.1636C75.1636 27.349 75.3199 26.6875 75.6324 26.0625C75.9553 25.4271 76.4188 24.8646 77.023 24.375C77.6272 23.8854 78.3615 23.5 79.2261 23.2188C80.1011 22.9271 81.0959 22.7812 82.2105 22.7812C83.2209 22.7812 84.1584 22.9062 85.023 23.1562C85.8876 23.3958 86.6428 23.7604 87.2886 24.25C87.9136 24.7396 88.4084 25.3542 88.773 26.0938C89.1376 26.8229 89.3199 27.6771 89.3199 28.6562V36.0312C89.3199 36.8646 89.372 37.5833 89.4761 38.1875C89.5907 38.7812 89.7574 39.2969 89.9761 39.7344V40H85.8511ZM81.5074 37.125C81.9761 37.125 82.4084 37.0729 82.8043 36.9688C83.2001 36.8542 83.5595 36.7031 83.8824 36.5156C84.2053 36.3385 84.4813 36.1354 84.7105 35.9062C84.9501 35.6667 85.1376 35.4271 85.273 35.1875V32.1719H82.9605C82.2105 32.1719 81.5699 32.2396 81.0386 32.375C80.5074 32.5104 80.0751 32.7083 79.7418 32.9688C79.4397 33.2083 79.2105 33.4948 79.0543 33.8281C78.9084 34.1615 78.8355 34.526 78.8355 34.9219C78.8355 35.2448 78.8928 35.5469 79.0074 35.8281C79.122 36.099 79.2938 36.3333 79.523 36.5312C79.7418 36.7083 80.0178 36.8542 80.3511 36.9688C80.6845 37.0729 81.0699 37.125 81.5074 37.125ZM108.593 40H104.546V33.2969H97.8273V40H93.7648V23.0938H97.8273V30.0469H104.546V23.0938H108.593V40ZM112.96 46.5V23.0938H116.678L116.835 24.7969C117.064 24.5052 117.314 24.25 117.585 24.0312C117.855 23.8021 118.147 23.6042 118.46 23.4375C118.845 23.2292 119.272 23.0677 119.741 22.9531C120.22 22.8385 120.73 22.7812 121.272 22.7812C122.345 22.7812 123.293 22.9896 124.116 23.4062C124.939 23.8229 125.632 24.4062 126.194 25.1562C126.757 25.9167 127.184 26.8281 127.475 27.8906C127.767 28.9427 127.913 30.1042 127.913 31.375V31.7188C127.913 32.9375 127.767 34.0729 127.475 35.125C127.184 36.1771 126.762 37.0833 126.21 37.8438C125.647 38.6146 124.954 39.2188 124.132 39.6562C123.309 40.0938 122.366 40.3125 121.303 40.3125C120.72 40.3125 120.184 40.25 119.694 40.125C119.204 40 118.751 39.8229 118.335 39.5938C118.085 39.4479 117.85 39.2865 117.632 39.1094C117.413 38.9219 117.199 38.7188 116.991 38.5V46.5H112.96ZM123.866 31.375C123.866 30.6458 123.793 29.9583 123.647 29.3125C123.512 28.6667 123.298 28.1042 123.007 27.625C122.704 27.1458 122.319 26.7708 121.85 26.5C121.392 26.2292 120.835 26.0938 120.178 26.0938C119.803 26.0938 119.46 26.1302 119.147 26.2031C118.835 26.276 118.553 26.3802 118.303 26.5156C118.022 26.6823 117.772 26.8802 117.553 27.1094C117.335 27.3385 117.147 27.6094 116.991 27.9219V35.2031C117.137 35.4844 117.309 35.7396 117.507 35.9688C117.715 36.1979 117.949 36.3958 118.21 36.5625C118.46 36.7188 118.751 36.8438 119.085 36.9375C119.428 37.0208 119.803 37.0625 120.21 37.0625C120.855 37.0625 121.413 36.9219 121.882 36.6406C122.35 36.349 122.73 35.9583 123.022 35.4688C123.314 34.9792 123.527 34.4115 123.663 33.7656C123.798 33.1198 123.866 32.4323 123.866 31.7031V31.375ZM142.295 23.0938H146.342V40H142.295V28.8594L135.545 40H131.498V23.0938H135.545V34.2344L142.295 23.0938Z" fill="#F5F3EE"/>
<path d="M56.3789 56.9531C56.3789 56.3105 56.4268 55.7044 56.5225 55.1348C56.6227 54.5651 56.7572 54.0387 56.9258 53.5557C57.0944 53.0726 57.2904 52.6328 57.5137 52.2363C57.7415 51.8353 57.9808 51.4821 58.2314 51.1768C58.4821 50.8714 58.7396 50.6117 59.0039 50.3975C59.2682 50.1833 59.5234 50.0169 59.7695 49.8984L60.1113 50.8965C59.9655 51.0059 59.8197 51.138 59.6738 51.293C59.528 51.4479 59.3844 51.6234 59.2432 51.8193C59.0563 52.0882 58.8809 52.4049 58.7168 52.7695C58.5527 53.1341 58.4092 53.5306 58.2861 53.959C58.1813 54.3691 58.0947 54.8249 58.0264 55.3262C57.9626 55.8229 57.9307 56.3607 57.9307 56.9395V57.1035C57.9307 57.6732 57.9603 58.2018 58.0195 58.6895C58.0833 59.1725 58.1562 59.5713 58.2383 59.8857C58.3431 60.2913 58.4639 60.6673 58.6006 61.0137C58.7419 61.36 58.89 61.6631 59.0449 61.9229C59.2135 62.2008 59.389 62.4424 59.5713 62.6475C59.7536 62.8571 59.9336 63.0303 60.1113 63.167L59.7695 64.1445C59.5234 64.026 59.2682 63.8574 59.0039 63.6387C58.7396 63.4245 58.4821 63.1647 58.2314 62.8594C57.9808 62.554 57.7415 62.2031 57.5137 61.8066C57.2904 61.4102 57.0944 60.9681 56.9258 60.4805C56.7572 60.002 56.6227 59.4801 56.5225 58.915C56.4268 58.3454 56.3789 57.737 56.3789 57.0898V56.9531ZM66.4105 58.8604L67.5589 53.6035H69.7737V61H68.181V56.7891L67.0052 61H65.8089L64.6536 56.8301V61H63.0608V53.6035H65.2757L66.4105 58.8604ZM71.2399 57.2334C71.2399 56.6956 71.3173 56.1989 71.4723 55.7432C71.6272 55.2829 71.8551 54.8841 72.1559 54.5469C72.4475 54.2096 72.8076 53.9453 73.2359 53.7539C73.6643 53.5625 74.152 53.4668 74.6988 53.4668C75.2503 53.4668 75.7402 53.5625 76.1686 53.7539C76.5969 53.9453 76.9615 54.2096 77.2623 54.5469C77.554 54.8841 77.7773 55.2829 77.9322 55.7432C78.0872 56.1989 78.1647 56.6956 78.1647 57.2334V57.377C78.1647 57.9193 78.0872 58.4206 77.9322 58.8809C77.7773 59.3366 77.554 59.7331 77.2623 60.0703C76.9661 60.4076 76.6038 60.6719 76.1754 60.8633C75.747 61.0501 75.2594 61.1436 74.7125 61.1436C74.1611 61.1436 73.6689 61.0501 73.2359 60.8633C72.8076 60.6719 72.4475 60.4076 72.1559 60.0703C71.8551 59.7331 71.6272 59.3366 71.4723 58.8809C71.3173 58.4206 71.2399 57.9193 71.2399 57.377V57.2334ZM73.0035 57.377C73.0035 57.7005 73.0354 58.0036 73.0992 58.2861C73.1676 58.5687 73.2701 58.8148 73.4068 59.0244C73.5436 59.2432 73.719 59.4141 73.9332 59.5371C74.152 59.6602 74.4117 59.7217 74.7125 59.7217C75.0042 59.7217 75.2571 59.6602 75.4713 59.5371C75.6855 59.4141 75.8609 59.2432 75.9977 59.0244C76.1298 58.8148 76.2278 58.5687 76.2916 58.2861C76.36 58.0036 76.3941 57.7005 76.3941 57.377V57.2334C76.3941 56.9189 76.36 56.6227 76.2916 56.3447C76.2278 56.0622 76.1298 55.8138 75.9977 55.5996C75.8609 55.3809 75.6855 55.21 75.4713 55.0869C75.2571 54.9639 74.9996 54.9023 74.6988 54.9023C74.4026 54.9023 74.1474 54.9639 73.9332 55.0869C73.719 55.21 73.5436 55.3809 73.4068 55.5996C73.2701 55.8138 73.1676 56.0622 73.0992 56.3447C73.0354 56.6227 73.0035 56.9189 73.0035 57.2334V57.377ZM84.0673 58.1152H83.6982V61H82.1327V58.1152H81.7636L80.7792 61H78.9677L80.6151 57.0898L79.0634 53.6035H80.8818L81.8251 56.4541H82.1327V53.6035H83.6982V56.4541H84.0126L84.956 53.6035H86.7812L85.2431 57.0557L86.8974 61H85.0585L84.0673 58.1152ZM94.3928 61H92.6223V58.0674H89.6828V61H87.9055V53.6035H89.6828V56.6455H92.6223V53.6035H94.3928V61ZM100.952 61C100.906 60.9089 100.867 60.8018 100.835 60.6787C100.804 60.5511 100.779 60.4189 100.76 60.2822C100.651 60.4007 100.526 60.5124 100.384 60.6172C100.243 60.7174 100.088 60.8063 99.9195 60.8838C99.7463 60.9613 99.5571 61.0228 99.3521 61.0684C99.147 61.1139 98.9282 61.1367 98.6958 61.1367C98.313 61.1367 97.9621 61.082 97.6431 60.9727C97.3286 60.8633 97.0598 60.7106 96.8364 60.5146C96.6086 60.3187 96.4308 60.0863 96.3032 59.8174C96.1802 59.5439 96.1187 59.25 96.1187 58.9355C96.1187 58.5254 96.1984 58.1631 96.3579 57.8486C96.5174 57.5342 96.7544 57.2744 97.0689 57.0693C97.356 56.8779 97.7092 56.7344 98.1284 56.6387C98.5523 56.5384 99.0331 56.4883 99.5708 56.4883H100.699V56.0234C100.699 55.8366 100.669 55.6702 100.61 55.5244C100.551 55.3786 100.462 55.2533 100.343 55.1484C100.22 55.0391 100.068 54.9548 99.8853 54.8955C99.7075 54.8363 99.5002 54.8066 99.2632 54.8066C99.0536 54.8066 98.869 54.8317 98.7095 54.8818C98.5545 54.932 98.4269 55.0026 98.3267 55.0938C98.231 55.1758 98.1603 55.276 98.1148 55.3945C98.0692 55.5085 98.0464 55.6338 98.0464 55.7705H96.2759C96.2759 55.4652 96.3443 55.1758 96.481 54.9023C96.6223 54.6243 96.8251 54.3783 97.0894 54.1641C97.3537 53.9499 97.675 53.7812 98.0532 53.6582C98.4361 53.5306 98.8713 53.4668 99.3589 53.4668C99.801 53.4668 100.211 53.5215 100.589 53.6309C100.968 53.7357 101.298 53.8952 101.581 54.1094C101.854 54.3236 102.07 54.5924 102.23 54.916C102.39 55.235 102.469 55.6087 102.469 56.0371V59.2637C102.469 59.6283 102.492 59.9427 102.538 60.207C102.588 60.4668 102.661 60.6924 102.756 60.8838V61H100.952ZM99.0513 59.7422C99.2564 59.7422 99.4455 59.7194 99.6187 59.6738C99.7918 59.6237 99.9491 59.5576 100.09 59.4756C100.232 59.3981 100.352 59.3092 100.453 59.209C100.557 59.1042 100.64 58.9993 100.699 58.8945V57.5752H99.687C99.3589 57.5752 99.0786 57.6048 98.8462 57.6641C98.6138 57.7233 98.4247 57.8099 98.2788 57.9238C98.1467 58.0286 98.0464 58.154 97.978 58.2998C97.9142 58.4456 97.8823 58.6051 97.8823 58.7783C97.8823 58.9196 97.9074 59.0518 97.9575 59.1748C98.0077 59.2933 98.0829 59.3958 98.1831 59.4824C98.2788 59.5599 98.3996 59.6237 98.5454 59.6738C98.6913 59.7194 98.8599 59.7422 99.0513 59.7422ZM112.511 57.2334C112.511 56.6956 112.588 56.1989 112.743 55.7432C112.898 55.2829 113.126 54.8841 113.427 54.5469C113.719 54.2096 114.079 53.9453 114.507 53.7539C114.935 53.5625 115.423 53.4668 115.97 53.4668C116.521 53.4668 117.011 53.5625 117.44 53.7539C117.868 53.9453 118.233 54.2096 118.533 54.5469C118.825 54.8841 119.048 55.2829 119.203 55.7432C119.358 56.1989 119.436 56.6956 119.436 57.2334V57.377C119.436 57.9193 119.358 58.4206 119.203 58.8809C119.048 59.3366 118.825 59.7331 118.533 60.0703C118.237 60.4076 117.875 60.6719 117.446 60.8633C117.018 61.0501 116.53 61.1436 115.984 61.1436C115.432 61.1436 114.94 61.0501 114.507 60.8633C114.079 60.6719 113.719 60.4076 113.427 60.0703C113.126 59.7331 112.898 59.3366 112.743 58.8809C112.588 58.4206 112.511 57.9193 112.511 57.377V57.2334ZM114.275 57.377C114.275 57.7005 114.306 58.0036 114.37 58.2861C114.439 58.5687 114.541 58.8148 114.678 59.0244C114.815 59.2432 114.99 59.4141 115.204 59.5371C115.423 59.6602 115.683 59.7217 115.984 59.7217C116.275 59.7217 116.528 59.6602 116.742 59.5371C116.957 59.4141 117.132 59.2432 117.269 59.0244C117.401 58.8148 117.499 58.5687 117.563 58.2861C117.631 58.0036 117.665 57.7005 117.665 57.377V57.2334C117.665 56.9189 117.631 56.6227 117.563 56.3447C117.499 56.0622 117.401 55.8138 117.269 55.5996C117.132 55.3809 116.957 55.21 116.742 55.0869C116.528 54.9639 116.271 54.9023 115.97 54.9023C115.674 54.9023 115.418 54.9639 115.204 55.0869C114.99 55.21 114.815 55.3809 114.678 55.5996C114.541 55.8138 114.439 56.0622 114.37 56.3447C114.306 56.6227 114.275 56.9189 114.275 57.2334V57.377ZM124.607 54.0137C125.099 54.0137 125.537 54.1025 125.919 54.2803C126.307 54.4535 126.633 54.6927 126.897 54.998C127.161 55.3034 127.362 55.6657 127.498 56.085C127.635 56.4997 127.704 56.9508 127.704 57.4385V57.5889C127.704 58.0993 127.626 58.5732 127.471 59.0107C127.321 59.4437 127.102 59.8174 126.815 60.1318C126.519 60.4463 126.156 60.6947 125.728 60.877C125.304 61.0547 124.821 61.1436 124.279 61.1436C123.732 61.1436 123.244 61.0501 122.816 60.8633C122.387 60.6719 122.027 60.4076 121.736 60.0703C121.444 59.7376 121.221 59.3434 121.066 58.8877C120.915 58.4274 120.84 57.9284 120.84 57.3906V56.9189C120.84 56.4906 120.858 56.0918 120.895 55.7227C120.936 55.349 120.995 55.0026 121.073 54.6836C121.15 54.3464 121.246 54.0342 121.36 53.7471C121.474 53.4554 121.608 53.1934 121.763 52.9609C122.05 52.5098 122.399 52.152 122.809 51.8877C123.219 51.6188 123.677 51.432 124.183 51.3271C124.429 51.277 124.643 51.2269 124.826 51.1768C125.008 51.1266 125.163 51.0651 125.29 50.9922C125.414 50.9193 125.505 50.8327 125.564 50.7324C125.628 50.6322 125.66 50.5091 125.66 50.3633H127.088C127.088 50.7507 127.036 51.0765 126.931 51.3408C126.826 51.6051 126.667 51.8239 126.453 51.9971C126.243 52.1748 125.981 52.3206 125.666 52.4346C125.357 52.5439 124.971 52.6442 124.511 52.7354C124.224 52.7992 123.96 52.8857 123.718 52.9951C123.477 53.1045 123.262 53.248 123.076 53.4258C122.893 53.6081 122.736 53.8291 122.604 54.0889C122.476 54.3441 122.381 54.6471 122.317 54.998C122.463 54.8477 122.618 54.7132 122.782 54.5947C122.946 54.4762 123.117 54.376 123.294 54.2939C123.49 54.2028 123.698 54.1344 123.916 54.0889C124.135 54.0387 124.365 54.0137 124.607 54.0137ZM124.265 55.4492C123.969 55.4492 123.716 55.5039 123.506 55.6133C123.297 55.7181 123.126 55.8617 122.994 56.0439C122.861 56.2308 122.763 56.445 122.7 56.6865C122.64 56.9235 122.611 57.1742 122.611 57.4385V57.5889C122.611 57.8805 122.64 58.1562 122.7 58.416C122.763 58.6758 122.861 58.9014 122.994 59.0928C123.126 59.2887 123.297 59.4437 123.506 59.5576C123.72 59.667 123.978 59.7217 124.279 59.7217C124.575 59.7217 124.828 59.667 125.038 59.5576C125.247 59.4437 125.418 59.2887 125.55 59.0928C125.682 58.9014 125.778 58.6758 125.837 58.416C125.901 58.1562 125.933 57.8805 125.933 57.5889V57.4385C125.933 57.1742 125.901 56.9235 125.837 56.6865C125.778 56.445 125.682 56.2308 125.55 56.0439C125.418 55.8617 125.245 55.7181 125.031 55.6133C124.821 55.5039 124.566 55.4492 124.265 55.4492ZM129.32 63.8438V53.6035H130.947L131.015 54.3486C131.116 54.221 131.225 54.1094 131.343 54.0137C131.462 53.9134 131.59 53.8268 131.726 53.7539C131.895 53.6628 132.082 53.5921 132.287 53.542C132.496 53.4919 132.72 53.4668 132.957 53.4668C133.426 53.4668 133.841 53.5579 134.201 53.7402C134.561 53.9225 134.864 54.1777 135.11 54.5059C135.356 54.8385 135.543 55.2373 135.671 55.7021C135.798 56.1624 135.862 56.6706 135.862 57.2266V57.377C135.862 57.9102 135.798 58.4069 135.671 58.8672C135.543 59.3275 135.358 59.724 135.117 60.0566C134.871 60.3939 134.568 60.6582 134.208 60.8496C133.848 61.041 133.435 61.1367 132.97 61.1367C132.715 61.1367 132.481 61.1094 132.266 61.0547C132.052 61 131.854 60.9225 131.672 60.8223C131.562 60.7585 131.46 60.6878 131.364 60.6104C131.268 60.5283 131.175 60.4395 131.084 60.3438V63.8438H129.32ZM134.092 57.2266C134.092 56.9076 134.06 56.6068 133.996 56.3242C133.937 56.0417 133.843 55.7956 133.716 55.5859C133.583 55.3763 133.415 55.2122 133.21 55.0938C133.009 54.9753 132.765 54.916 132.478 54.916C132.314 54.916 132.164 54.932 132.027 54.9639C131.89 54.9958 131.767 55.0413 131.658 55.1006C131.535 55.1735 131.426 55.2601 131.33 55.3604C131.234 55.4606 131.152 55.5791 131.084 55.7158V58.9014C131.148 59.0244 131.223 59.1361 131.309 59.2363C131.4 59.3366 131.503 59.4232 131.617 59.4961C131.726 59.5645 131.854 59.6191 132 59.6602C132.15 59.6966 132.314 59.7148 132.492 59.7148C132.774 59.7148 133.018 59.6533 133.223 59.5303C133.428 59.4027 133.595 59.2318 133.722 59.0176C133.85 58.8034 133.943 58.555 134.003 58.2725C134.062 57.9899 134.092 57.6891 134.092 57.3701V57.2266ZM142.223 61C142.177 60.9089 142.138 60.8018 142.106 60.6787C142.075 60.5511 142.05 60.4189 142.031 60.2822C141.922 60.4007 141.797 60.5124 141.655 60.6172C141.514 60.7174 141.359 60.8063 141.19 60.8838C141.017 60.9613 140.828 61.0228 140.623 61.0684C140.418 61.1139 140.199 61.1367 139.967 61.1367C139.584 61.1367 139.233 61.082 138.914 60.9727C138.6 60.8633 138.331 60.7106 138.107 60.5146C137.88 60.3187 137.702 60.0863 137.574 59.8174C137.451 59.5439 137.39 59.25 137.39 58.9355C137.39 58.5254 137.469 58.1631 137.629 57.8486C137.788 57.5342 138.025 57.2744 138.34 57.0693C138.627 56.8779 138.98 56.7344 139.399 56.6387C139.823 56.5384 140.304 56.4883 140.842 56.4883H141.97V56.0234C141.97 55.8366 141.94 55.6702 141.881 55.5244C141.822 55.3786 141.733 55.2533 141.614 55.1484C141.491 55.0391 141.339 54.9548 141.156 54.8955C140.979 54.8363 140.771 54.8066 140.534 54.8066C140.325 54.8066 140.14 54.8317 139.981 54.8818C139.826 54.932 139.698 55.0026 139.598 55.0938C139.502 55.1758 139.431 55.276 139.386 55.3945C139.34 55.5085 139.317 55.6338 139.317 55.7705H137.547C137.547 55.4652 137.615 55.1758 137.752 54.9023C137.893 54.6243 138.096 54.3783 138.36 54.1641C138.625 53.9499 138.946 53.7812 139.324 53.6582C139.707 53.5306 140.142 53.4668 140.63 53.4668C141.072 53.4668 141.482 53.5215 141.86 53.6309C142.239 53.7357 142.569 53.8952 142.852 54.1094C143.125 54.3236 143.342 54.5924 143.501 54.916C143.661 55.235 143.74 55.6087 143.74 56.0371V59.2637C143.74 59.6283 143.763 59.9427 143.809 60.207C143.859 60.4668 143.932 60.6924 144.027 60.8838V61H142.223ZM140.322 59.7422C140.527 59.7422 140.717 59.7194 140.89 59.6738C141.063 59.6237 141.22 59.5576 141.361 59.4756C141.503 59.3981 141.623 59.3092 141.724 59.209C141.828 59.1042 141.911 58.9993 141.97 58.8945V57.5752H140.958C140.63 57.5752 140.35 57.6048 140.117 57.6641C139.885 57.7233 139.696 57.8099 139.55 57.9238C139.418 58.0286 139.317 58.154 139.249 58.2998C139.185 58.4456 139.153 58.6051 139.153 58.7783C139.153 58.9196 139.178 59.0518 139.229 59.1748C139.279 59.2933 139.354 59.3958 139.454 59.4824C139.55 59.5599 139.671 59.6237 139.816 59.6738C139.962 59.7194 140.131 59.7422 140.322 59.7422ZM152.931 55.0254H150.06V61H148.289V55.0254H145.446V53.6035H152.931V55.0254ZM158.663 53.6035H160.433V61H158.663V56.126L155.71 61H153.939V53.6035H155.71V58.4775L158.663 53.6035ZM170.564 59.5713C170.81 59.5212 171.001 59.3981 171.138 59.2021C171.279 59.0016 171.386 58.7487 171.459 58.4434C171.532 58.1426 171.58 57.7985 171.603 57.4111C171.626 57.0192 171.644 56.6022 171.657 56.1602L171.712 53.6035H176.955V59.5781H177.988L177.858 63.208H176.224V61H171.61V63.208H169.955L169.812 59.5713H170.564ZM173.428 56.1602C173.405 56.5794 173.376 56.9759 173.339 57.3496C173.303 57.7233 173.253 58.0719 173.189 58.3955C173.148 58.6188 173.1 58.8285 173.045 59.0244C172.99 59.2204 172.924 59.4049 172.847 59.5781H175.192V55.1074H173.448L173.428 56.1602ZM182.345 61.1367C181.785 61.1367 181.274 61.0456 180.814 60.8633C180.358 60.6764 179.966 60.4212 179.638 60.0977C179.31 59.7786 179.057 59.4027 178.879 58.9697C178.702 58.5322 178.613 58.0628 178.613 57.5615V57.2881C178.613 56.7139 178.702 56.1943 178.879 55.7295C179.062 55.2601 179.312 54.8568 179.631 54.5195C179.95 54.1868 180.324 53.9294 180.753 53.7471C181.185 53.5602 181.65 53.4668 182.147 53.4668C182.68 53.4668 183.152 53.5557 183.562 53.7334C183.977 53.9111 184.328 54.1595 184.615 54.4785C184.897 54.7975 185.112 55.1826 185.257 55.6338C185.403 56.0804 185.476 56.5726 185.476 57.1104V57.8623H180.397V57.8896C180.456 58.1995 180.536 58.4548 180.636 58.6553C180.741 58.8558 180.88 59.0358 181.053 59.1953C181.236 59.3594 181.443 59.487 181.675 59.5781C181.912 59.6693 182.172 59.7148 182.455 59.7148C182.842 59.7148 183.211 59.6396 183.562 59.4893C183.913 59.3389 184.2 59.1201 184.423 58.833L185.333 59.7695C185.091 60.1204 184.711 60.4372 184.191 60.7197C183.676 60.9977 183.061 61.1367 182.345 61.1367ZM182.133 54.9023C181.91 54.9023 181.703 54.9411 181.511 55.0186C181.324 55.096 181.16 55.21 181.019 55.3604C180.873 55.5107 180.75 55.6908 180.65 55.9004C180.554 56.11 180.484 56.347 180.438 56.6113H183.733V56.4746C183.733 56.2695 183.694 56.069 183.617 55.873C183.544 55.6771 183.441 55.5085 183.309 55.3672C183.172 55.2259 183.006 55.1143 182.81 55.0322C182.619 54.9456 182.393 54.9023 182.133 54.9023ZM189.923 58.1494H188.788V61H187.024V53.6035H188.788V56.4951H189.793L191.946 53.6035H194.161L191.351 57.165L194.38 61H192.056L189.923 58.1494ZM195.771 53.6035H199.749V59.5508H201.841V61H195.771V59.5508H197.965V55.0596H195.771V53.6035ZM197.821 51.7031C197.821 51.5618 197.847 51.432 197.897 51.3135C197.947 51.195 198.017 51.0924 198.109 51.0059C198.195 50.9238 198.3 50.86 198.423 50.8145C198.551 50.7689 198.692 50.7461 198.847 50.7461C199.139 50.7461 199.371 50.8236 199.544 50.9785C199.722 51.1335 199.818 51.3363 199.831 51.5869C199.845 51.833 199.777 52.0404 199.626 52.209C199.48 52.3776 199.273 52.4733 199.004 52.4961C198.876 52.5417 198.744 52.5599 198.608 52.5508C198.475 52.5371 198.346 52.4938 198.218 52.4209C198.09 52.3525 197.992 52.2546 197.924 52.127C197.856 51.9993 197.821 51.8581 197.821 51.7031ZM209.952 53.6035V61H208.174V55.0459H206.014V56.7549C206.014 57.0101 206.007 57.2562 205.994 57.4932C205.985 57.7301 205.966 57.9535 205.939 58.1631C205.898 58.5186 205.832 58.8444 205.741 59.1406C205.654 59.4368 205.542 59.6989 205.406 59.9268C205.187 60.2822 204.895 60.5511 204.531 60.7334C204.171 60.9111 203.724 61 203.191 61H202.849L202.842 59.5234H203.082C203.328 59.5234 203.526 59.4733 203.676 59.373C203.831 59.2682 203.95 59.1042 204.032 58.8809C204.077 58.7578 204.114 58.6165 204.141 58.457C204.173 58.293 204.196 58.1107 204.209 57.9102C204.223 57.7461 204.232 57.5684 204.237 57.377C204.241 57.1855 204.244 56.9782 204.244 56.7549V53.6035H209.952ZM213.578 56.1602H215.526C216.014 56.1602 216.447 56.2194 216.825 56.3379C217.208 56.4564 217.531 56.6204 217.796 56.8301C218.055 57.0443 218.254 57.3018 218.39 57.6025C218.527 57.8988 218.595 58.2269 218.595 58.5869C218.595 58.9333 218.527 59.2546 218.39 59.5508C218.254 59.8424 218.055 60.0954 217.796 60.3096C217.536 60.5238 217.215 60.6924 216.832 60.8154C216.449 60.9385 216.014 61 215.526 61H211.814V53.6035H213.578V56.1602ZM213.578 57.582V59.585H215.526C215.759 59.585 215.957 59.5576 216.121 59.5029C216.285 59.4482 216.419 59.3753 216.524 59.2842C216.629 59.193 216.706 59.0905 216.757 58.9766C216.807 58.8581 216.832 58.7327 216.832 58.6006C216.832 58.4639 216.807 58.334 216.757 58.2109C216.706 58.0879 216.629 57.9785 216.524 57.8828C216.419 57.7917 216.285 57.7188 216.121 57.6641C215.957 57.6094 215.759 57.582 215.526 57.582H213.578ZM222.94 58.1494H221.805V61H220.041V53.6035H221.805V56.4951H222.81L224.963 53.6035H227.178L224.368 57.165L227.397 61H225.072L222.94 58.1494ZM233.019 61C232.973 60.9089 232.935 60.8018 232.903 60.6787C232.871 60.5511 232.846 60.4189 232.828 60.2822C232.718 60.4007 232.593 60.5124 232.452 60.6172C232.31 60.7174 232.155 60.8063 231.987 60.8838C231.814 60.9613 231.624 61.0228 231.419 61.0684C231.214 61.1139 230.995 61.1367 230.763 61.1367C230.38 61.1367 230.029 61.082 229.71 60.9727C229.396 60.8633 229.127 60.7106 228.904 60.5146C228.676 60.3187 228.498 60.0863 228.37 59.8174C228.247 59.5439 228.186 59.25 228.186 58.9355C228.186 58.5254 228.266 58.1631 228.425 57.8486C228.585 57.5342 228.822 57.2744 229.136 57.0693C229.423 56.8779 229.776 56.7344 230.196 56.6387C230.62 56.5384 231.1 56.4883 231.638 56.4883H232.766V56.0234C232.766 55.8366 232.736 55.6702 232.677 55.5244C232.618 55.3786 232.529 55.2533 232.411 55.1484C232.287 55.0391 232.135 54.9548 231.953 54.8955C231.775 54.8363 231.567 54.8066 231.33 54.8066C231.121 54.8066 230.936 54.8317 230.777 54.8818C230.622 54.932 230.494 55.0026 230.394 55.0938C230.298 55.1758 230.228 55.276 230.182 55.3945C230.136 55.5085 230.114 55.6338 230.114 55.7705H228.343C228.343 55.4652 228.412 55.1758 228.548 54.9023C228.69 54.6243 228.892 54.3783 229.157 54.1641C229.421 53.9499 229.742 53.7812 230.12 53.6582C230.503 53.5306 230.939 53.4668 231.426 53.4668C231.868 53.4668 232.278 53.5215 232.657 53.6309C233.035 53.7357 233.365 53.8952 233.648 54.1094C233.921 54.3236 234.138 54.5924 234.297 54.916C234.457 55.235 234.537 55.6087 234.537 56.0371V59.2637C234.537 59.6283 234.559 59.9427 234.605 60.207C234.655 60.4668 234.728 60.6924 234.824 60.8838V61H233.019ZM231.119 59.7422C231.324 59.7422 231.513 59.7194 231.686 59.6738C231.859 59.6237 232.016 59.5576 232.158 59.4756C232.299 59.3981 232.42 59.3092 232.52 59.209C232.625 59.1042 232.707 58.9993 232.766 58.8945V57.5752H231.754C231.426 57.5752 231.146 57.6048 230.913 57.6641C230.681 57.7233 230.492 57.8099 230.346 57.9238C230.214 58.0286 230.114 58.154 230.045 58.2998C229.982 58.4456 229.95 58.6051 229.95 58.7783C229.95 58.9196 229.975 59.0518 230.025 59.1748C230.075 59.2933 230.15 59.3958 230.25 59.4824C230.346 59.5599 230.467 59.6237 230.613 59.6738C230.759 59.7194 230.927 59.7422 231.119 59.7422ZM241.567 57.0898C241.567 57.7188 241.517 58.3135 241.417 58.874C241.316 59.4346 241.18 59.9587 241.007 60.4463C240.833 60.9294 240.631 61.3691 240.398 61.7656C240.17 62.1667 239.929 62.5244 239.674 62.8389C239.418 63.1533 239.154 63.4199 238.881 63.6387C238.612 63.8574 238.352 64.026 238.101 64.1445L237.759 63.167C237.924 63.0439 238.09 62.889 238.258 62.7021C238.427 62.5199 238.589 62.3057 238.744 62.0596C238.922 61.7816 239.083 61.4671 239.229 61.1162C239.38 60.7653 239.512 60.3734 239.626 59.9404C239.721 59.5439 239.797 59.1087 239.851 58.6348C239.911 58.1608 239.94 57.6504 239.94 57.1035V56.9395C239.94 56.388 239.908 55.8753 239.844 55.4014C239.785 54.9274 239.71 54.499 239.619 54.1162C239.491 53.6286 239.339 53.1888 239.161 52.7969C238.983 52.4049 238.796 52.0677 238.6 51.7852C238.464 51.5892 238.322 51.4137 238.176 51.2588C238.035 51.1038 237.896 50.9717 237.759 50.8623L238.101 49.8984C238.352 50.0169 238.612 50.1855 238.881 50.4043C239.154 50.623 239.418 50.8874 239.674 51.1973C239.933 51.5163 240.177 51.874 240.405 52.2705C240.633 52.667 240.833 53.109 241.007 53.5967C241.18 54.0798 241.316 54.6016 241.417 55.1621C241.517 55.7181 241.567 56.3151 241.567 56.9531V57.0898Z" fill="#F5F3EE"/>
<defs>
<filter id="filter0_d_645_6463" x="0" y="0" width="318.004" height="87" filterUnits="userSpaceOnUse" color-interpolation-filters="sRGB">
<feFlood flood-opacity="0" result="BackgroundImageFix"/>
<feColorMatrix in="SourceAlpha" type="matrix" values="0 0 0 0 0 0 0 0 0 0 0 0 0 0 0 0 0 0 127 0" result="hardAlpha"/>
<feOffset dy="5"/>
<feGaussianBlur stdDeviation="2.5"/>
<feComposite in2="hardAlpha" operator="out"/>
<feColorMatrix type="matrix" values="0 0 0 0 0.141176 0 0 0 0 0.141176 0 0 0 0 0.141176 0 0 0 0.5 0"/>
<feBlend mode="normal" in2="BackgroundImageFix" result="effect1_dropShadow_645_6463"/>
<feBlend mode="normal" in="SourceGraphic" in2="effect1_dropShadow_645_6463" result="shape"/>
</filter>
<g id="stroke0_645_6463" data-figma-scatter-ref="stroke0_645_6463_ref" data-figma-scatter="f0.25_w0_aj95_sj0_r45_s14420632460363555279_sw10">
</g>
<path id="stroke0_645_6463_ref" d="M294.672 41.1429L312.241 69.3571C314.315 72.6876 311.92 77 307.996 77L10 77C7.23858 77 5 74.7614 5 72L5 5.00002C5 2.23859 7.23858 1.52301e-05 10 1.51212e-05L307.996 3.36771e-06C311.92 3.21297e-06 314.315 4.3124 312.241 7.64293L294.672 35.8571C293.665 37.475 293.665 39.525 294.672 41.1429Z"/>
</defs>
</svg>
