<svg width="30" height="30" viewBox="0 0 30 30" fill="none" xmlns="http://www.w3.org/2000/svg">
<rect width="30" height="30" rx="7" fill="#005B33" fill-opacity="0.5"/>
<path d="M10.8004 5.40039C9.47664 5.40039 8.40039 6.47664 8.40039 7.80039V22.2004C8.40039 23.5241 9.47664 24.6004 10.8004 24.6004H19.2004C20.5241 24.6004 21.6004 23.5241 21.6004 22.2004V7.80039C21.6004 6.47664 20.5241 5.40039 19.2004 5.40039H10.8004ZM15.0004 22.8004C14.3366 22.8004 13.8004 22.2641 13.8004 21.6004C13.8004 20.9366 14.3366 20.4004 15.0004 20.4004C15.6641 20.4004 16.2004 20.9366 16.2004 21.6004C16.2004 22.2641 15.6641 22.8004 15.0004 22.8004Z" fill="#F5F3EE"/>
</svg>
