<svg width="88" height="88" viewBox="0 0 88 88" fill="none" xmlns="http://www.w3.org/2000/svg">
<path d="M47.4401 17.5716C47.4401 15.1418 45.4862 13.1787 43.0677 13.1787C40.6492 13.1787 38.6953 15.1418 38.6953 17.5716V39.5363H16.8333C14.4149 39.5363 12.4609 41.4994 12.4609 43.9293C12.4609 46.3591 14.4149 48.3222 16.8333 48.3222H38.6953V70.2869C38.6953 72.7167 40.6492 74.6798 43.0677 74.6798C45.4862 74.6798 47.4401 72.7167 47.4401 70.2869V48.3222H69.3021C71.7206 48.3222 73.6745 46.3591 73.6745 43.9293C73.6745 41.4994 71.7206 39.5363 69.3021 39.5363H47.4401V17.5716Z" fill="#242424" fill-opacity="0.5"/>
</svg>
