<svg width="318" height="87" viewBox="0 0 318 87" fill="none" xmlns="http://www.w3.org/2000/svg" xmlns:xlink="http://www.w3.org/1999/xlink">
<g filter="url(#filter0_d_627_7081)">
<path d="M10 1.50616e-05C7.23858 1.51705e-05 5 2.23859 5 5.00002L5 72C5 74.7614 7.23858 77 10 77L307.996 77C311.92 77 314.315 72.6876 312.241 69.3571L294.672 41.1429C293.665 39.525 293.665 37.475 294.672 35.8571L312.241 7.64292C314.315 4.3124 311.92 3.15336e-06 307.996 3.30811e-06L10 1.50616e-05Z" fill="#005B33"/>
</g>
<defs>
<filter id="filter0_d_627_7081" x="0" y="0" width="318.004" height="87" filterUnits="userSpaceOnUse" color-interpolation-filters="sRGB">
<feFlood flood-opacity="0" result="BackgroundImageFix"/>
<feColorMatrix in="SourceAlpha" type="matrix" values="0 0 0 0 0 0 0 0 0 0 0 0 0 0 0 0 0 0 127 0" result="hardAlpha"/>
<feOffset dy="5"/>
<feGaussianBlur stdDeviation="2.5"/>
<feComposite in2="hardAlpha" operator="out"/>
<feColorMatrix type="matrix" values="0 0 0 0 0.141176 0 0 0 0 0.141176 0 0 0 0 0.141176 0 0 0 0.5 0"/>
<feBlend mode="normal" in2="BackgroundImageFix" result="effect1_dropShadow_627_7081"/>
<feBlend mode="normal" in="SourceGraphic" in2="effect1_dropShadow_627_7081" result="shape"/>
</filter>
<g id="stroke0_627_7081" data-figma-scatter-ref="stroke0_627_7081_ref" data-figma-scatter="f0.25_w0_aj95_sj0_r45_s14420632460363555279_sw10">
</g>
<path id="stroke0_627_7081_ref" d="M294.672 41.1429L312.241 69.3571C314.315 72.6876 311.92 77 307.996 77L10 77C7.23858 77 5 74.7614 5 72L5 5.00002C5 2.23859 7.23858 1.52301e-05 10 1.51212e-05L307.996 3.36771e-06C311.92 3.21297e-06 314.315 4.3124 312.241 7.64293L294.672 35.8571C293.665 37.475 293.665 39.525 294.672 41.1429Z"/>
</defs>
</svg>
