<svg width="467" height="81" viewBox="0 0 467 81" fill="none" xmlns="http://www.w3.org/2000/svg" xmlns:xlink="http://www.w3.org/1999/xlink">
<g filter="url(#filter0_d_628_6957)">
<path d="M10 0.000419427C7.23857 0.000419532 5 2.239 5 5.00042L5 65.1162C5 67.8776 7.23858 70.1162 10 70.1162L456.784 70.1162C461.259 70.1162 463.48 64.6885 460.29 61.5511L436.973 38.6234C434.981 36.6642 434.981 33.4524 436.973 31.4932L460.29 8.56555C463.48 5.42809 461.259 0.000402332 456.784 0.000402502L10 0.000419427Z" fill="#005B33"/>
</g>
<defs>
<filter id="filter0_d_628_6957" x="0" y="0" width="466.793" height="80.1162" filterUnits="userSpaceOnUse" color-interpolation-filters="sRGB">
<feFlood flood-opacity="0" result="BackgroundImageFix"/>
<feColorMatrix in="SourceAlpha" type="matrix" values="0 0 0 0 0 0 0 0 0 0 0 0 0 0 0 0 0 0 127 0" result="hardAlpha"/>
<feOffset dy="5"/>
<feGaussianBlur stdDeviation="2.5"/>
<feComposite in2="hardAlpha" operator="out"/>
<feColorMatrix type="matrix" values="0 0 0 0 0.141176 0 0 0 0 0.141176 0 0 0 0 0.141176 0 0 0 0.5 0"/>
<feBlend mode="normal" in2="BackgroundImageFix" result="effect1_dropShadow_628_6957"/>
<feBlend mode="normal" in="SourceGraphic" in2="effect1_dropShadow_628_6957" result="shape"/>
</filter>
<g id="stroke0_628_6957" data-figma-scatter-ref="stroke0_628_6957_ref" data-figma-scatter="f0.25_w0_aj95_sj0_r45_s14420632460363555279_sw10">
</g>
<path id="stroke0_628_6957_ref" d="M436.973 38.6234L460.29 61.5511C463.48 64.6885 461.259 70.1162 456.784 70.1162L10 70.1162C7.23858 70.1162 5 67.8776 5 65.1162L5 5.00042C5 2.239 7.23857 0.000421082 10 0.000420977L456.784 0.000404051C461.259 0.000403882 463.48 5.42809 460.29 8.56555L436.973 31.4932C434.981 33.4524 434.981 36.6642 436.973 38.6234Z"/>
</defs>
</svg>
