<svg width="22" height="28" viewBox="0 0 22 28" fill="none" xmlns="http://www.w3.org/2000/svg">
<path fill-rule="evenodd" clip-rule="evenodd" d="M13.2212 24.625C13.2212 26 12.1079 27.1123 10.7329 27.1123C9.35811 27.1121 8.2456 25.9999 8.2456 24.625H13.2212ZM10.7329 0C11.7704 2.51603e-05 12.6079 0.837516 12.6079 1.875V3.33789C16.5328 4.18794 19.4829 7.68754 19.4829 11.875V19.375L21.0952 20.9873C21.8827 21.7748 21.32 23.125 20.2075 23.125H1.2456C0.133096 23.125 -0.416904 21.7748 0.370597 20.9873L1.9829 19.375V11.875C1.9829 7.68751 4.93292 4.1879 8.8579 3.33789V1.875C8.8579 0.8375 9.6954 0 10.7329 0Z" fill="#242424"/>
</svg>
