<svg width="112" height="119" viewBox="0 0 112 119" fill="none" xmlns="http://www.w3.org/2000/svg">
<g filter="url(#filter0_d_59_378)">
<circle cx="56" cy="40" r="25" fill="#F5F3EE"/>
</g>
<path d="M49.333 41.666C53.2163 41.6661 60.9986 43.616 60.999 47.499V49.999C60.999 50.9156 60.2495 51.6658 59.333 51.666H39.333C38.4163 51.666 37.666 50.9157 37.666 49.999V47.499C37.6665 43.6159 45.4498 41.666 49.333 41.666ZM62.665 41.666C66.5483 41.666 74.3316 43.6159 74.332 47.499V49.999C74.332 50.9157 73.5817 51.666 72.665 51.666H64.0322C64.2156 51.1494 64.332 50.5823 64.332 49.999V47.499C64.3319 45.0492 63.0151 43.1997 61.1152 41.8164C61.0986 41.7997 61.0822 41.7657 61.0488 41.749C61.632 41.699 62.1818 41.666 62.665 41.666ZM49.332 28.333C52.0987 28.333 54.3154 30.5663 54.3154 33.333C54.3154 36.0997 52.0987 38.333 49.332 38.333C46.5654 38.333 44.332 36.0997 44.332 33.333C44.332 30.5663 46.5654 28.333 49.332 28.333ZM62.666 28.333C65.4327 28.333 67.6494 30.5663 67.6494 33.333C67.6494 36.0997 65.4327 38.333 62.666 38.333C59.8993 38.333 57.666 36.0997 57.666 33.333C57.666 30.5663 59.8993 28.333 62.666 28.333Z" fill="#242424"/>
<path d="M0 107.5C0 101.149 5.14873 96 11.5 96H40.1972C44.12 96 47.4651 93.1578 48.0986 89.2865C49.5634 80.3351 62.4366 80.3351 63.9014 89.2864C64.5349 93.1578 67.88 96 71.8028 96H100.5C106.851 96 112 101.149 112 107.5C112 113.851 106.851 119 100.5 119H11.5C5.14873 119 0 113.851 0 107.5Z" fill="#F5F3EE"/>
<path d="M27.0174 109.938C26.9718 110.421 26.8579 110.86 26.6756 111.257C26.4933 111.649 26.254 111.984 25.9578 112.262C25.657 112.544 25.2993 112.763 24.8846 112.918C24.4744 113.068 24.0187 113.144 23.5174 113.144C23.1072 113.144 22.729 113.089 22.3826 112.979C22.0408 112.866 21.7355 112.706 21.4666 112.501C21.2068 112.31 20.979 112.079 20.783 111.811C20.5916 111.537 20.4298 111.239 20.2976 110.915C20.1655 110.596 20.0652 110.25 19.9969 109.876C19.9331 109.502 19.9012 109.113 19.9012 108.707V107.347C19.9012 106.959 19.9331 106.586 19.9969 106.226C20.0607 105.866 20.1564 105.526 20.284 105.207C20.4207 104.852 20.5961 104.53 20.8103 104.243C21.0291 103.951 21.2797 103.703 21.5623 103.498C21.8312 103.311 22.1274 103.165 22.451 103.061C22.7791 102.956 23.1368 102.903 23.5242 102.903C24.0483 102.903 24.5154 102.981 24.9256 103.136C25.3403 103.291 25.6935 103.509 25.9851 103.792C26.2814 104.079 26.5138 104.425 26.6824 104.831C26.8556 105.237 26.9672 105.688 27.0174 106.185H25.3767C25.3494 105.888 25.2924 105.622 25.2058 105.385C25.1238 105.143 25.0099 104.938 24.864 104.77C24.7137 104.601 24.5291 104.473 24.3103 104.387C24.0916 104.296 23.8295 104.25 23.5242 104.25C23.31 104.25 23.1163 104.28 22.9431 104.339C22.7745 104.398 22.6241 104.482 22.492 104.592C22.3097 104.724 22.157 104.897 22.034 105.111C21.9155 105.321 21.8175 105.556 21.74 105.815C21.6808 106.043 21.6352 106.287 21.6033 106.547C21.576 106.802 21.5623 107.064 21.5623 107.333V108.707C21.5623 109.04 21.5805 109.352 21.617 109.644C21.658 109.935 21.7195 110.202 21.8015 110.443C21.8654 110.644 21.9451 110.826 22.0408 110.99C22.1411 111.154 22.2596 111.296 22.3963 111.414C22.5376 111.542 22.6993 111.64 22.8816 111.708C23.0685 111.772 23.2804 111.804 23.5174 111.804C23.7999 111.804 24.0506 111.763 24.2693 111.681C24.4881 111.599 24.6749 111.478 24.8299 111.318C24.9803 111.163 25.101 110.97 25.1922 110.737C25.2833 110.505 25.3426 110.238 25.3699 109.938H27.0174ZM34.8819 113H33.2481V106.937H30.1241V113H28.4835V105.604H34.8819V113ZM37.223 105.604H41.1469V111.646H43.3207V113H37.223V111.646H39.4994V106.964H37.223V105.604ZM39.349 103.689C39.349 103.557 39.3718 103.437 39.4174 103.327C39.4629 103.213 39.529 103.115 39.6156 103.033C39.6976 102.956 39.7956 102.896 39.9096 102.855C40.0281 102.81 40.1602 102.787 40.306 102.787C40.5521 102.787 40.7504 102.851 40.9008 102.979C41.0557 103.102 41.1446 103.261 41.1674 103.457C41.1993 103.658 41.1651 103.833 41.0648 103.983C40.9646 104.129 40.8187 104.227 40.6273 104.277C40.5316 104.364 40.4177 104.421 40.2855 104.448C40.1534 104.476 40.0075 104.464 39.848 104.414C39.684 104.364 39.5587 104.275 39.4721 104.147C39.39 104.015 39.349 103.863 39.349 103.689ZM51.3835 105.604V113H49.7429V106.937H47.4392L47.4323 108.762C47.4323 109.012 47.4255 109.256 47.4118 109.493C47.4027 109.73 47.3867 109.953 47.364 110.163C47.3184 110.519 47.2523 110.844 47.1657 111.141C47.0837 111.432 46.9766 111.69 46.8444 111.913C46.6302 112.273 46.3477 112.544 45.9968 112.727C45.6459 112.909 45.2106 113 44.6911 113H44.3425V111.619L44.5886 111.612C44.8392 111.612 45.042 111.558 45.197 111.448C45.3565 111.339 45.4818 111.168 45.5729 110.936C45.6185 110.808 45.6573 110.66 45.6892 110.491C45.7211 110.323 45.7438 110.136 45.7575 109.931C45.7712 109.762 45.7803 109.582 45.7849 109.391C45.7894 109.195 45.7917 108.985 45.7917 108.762L45.7985 105.604H51.3835ZM54.9482 108.222H56.9854C57.4593 108.222 57.8809 108.281 58.25 108.399C58.6237 108.513 58.9382 108.675 59.1934 108.885C59.4486 109.099 59.6423 109.352 59.7744 109.644C59.9066 109.935 59.9727 110.257 59.9727 110.607C59.9727 110.949 59.9066 111.268 59.7744 111.564C59.6423 111.856 59.4486 112.107 59.1934 112.316C58.9382 112.531 58.6237 112.699 58.25 112.822C57.8809 112.941 57.4593 113 56.9854 113H53.3145V105.604H54.9482V108.222ZM54.9482 109.541V111.688H56.9854C57.2223 111.688 57.4274 111.658 57.6006 111.599C57.7738 111.539 57.915 111.462 58.0244 111.366C58.1338 111.271 58.2135 111.159 58.2637 111.031C58.3138 110.904 58.3389 110.771 58.3389 110.635C58.3389 110.493 58.3115 110.357 58.2568 110.225C58.2067 110.092 58.127 109.974 58.0176 109.869C57.9082 109.773 57.7669 109.696 57.5938 109.637C57.4251 109.573 57.2223 109.541 56.9854 109.541H54.9482ZM67.8987 113H66.2581V110.006H63.1409V113H61.5003V105.604H63.1409V108.687H66.2581V105.604H67.8987V113ZM69.5631 109.233C69.5631 108.696 69.6406 108.199 69.7955 107.743C69.9505 107.283 70.1761 106.884 70.4723 106.547C70.7639 106.21 71.1217 105.945 71.5455 105.754C71.9693 105.562 72.4524 105.467 72.9947 105.467C73.5371 105.467 74.0201 105.562 74.444 105.754C74.8723 105.945 75.2346 106.21 75.5309 106.547C75.8225 106.884 76.0458 107.283 76.2008 107.743C76.3557 108.199 76.4332 108.696 76.4332 109.233V109.377C76.4332 109.919 76.3557 110.418 76.2008 110.874C76.0458 111.33 75.8225 111.726 75.5309 112.063C75.2392 112.401 74.8792 112.665 74.4508 112.856C74.027 113.048 73.5462 113.144 73.0084 113.144C72.4661 113.144 71.9807 113.048 71.5524 112.856C71.124 112.665 70.7639 112.401 70.4723 112.063C70.1761 111.726 69.9505 111.33 69.7955 110.874C69.6406 110.418 69.5631 109.919 69.5631 109.377V109.233ZM71.1969 109.377C71.1969 109.71 71.2311 110.024 71.2994 110.32C71.3723 110.617 71.484 110.876 71.6344 111.1C71.7802 111.323 71.9671 111.501 72.1949 111.633C72.4228 111.76 72.694 111.824 73.0084 111.824C73.3137 111.824 73.5803 111.76 73.8082 111.633C74.0361 111.501 74.2229 111.323 74.3688 111.1C74.5146 110.876 74.6217 110.617 74.69 110.32C74.763 110.024 74.7994 109.71 74.7994 109.377V109.233C74.7994 108.91 74.763 108.6 74.69 108.304C74.6171 108.007 74.51 107.748 74.3688 107.524C74.2184 107.301 74.0292 107.123 73.8014 106.991C73.5781 106.859 73.3092 106.793 72.9947 106.793C72.6848 106.793 72.416 106.859 72.1881 106.991C71.9648 107.123 71.7802 107.301 71.6344 107.524C71.484 107.748 71.3723 108.007 71.2994 108.304C71.2311 108.6 71.1969 108.91 71.1969 109.233V109.377ZM85.1181 106.916H82.2265V113H80.5859V106.916H77.7284V105.604H85.1181V106.916ZM91.0959 113C91.0458 112.909 91.0048 112.799 90.9729 112.672C90.9455 112.54 90.9205 112.403 90.8977 112.262C90.7837 112.38 90.6539 112.494 90.508 112.604C90.3668 112.708 90.2072 112.799 90.0295 112.877C89.8518 112.959 89.6604 113.023 89.4553 113.068C89.2502 113.114 89.0292 113.137 88.7922 113.137C88.4094 113.137 88.0585 113.082 87.7395 112.973C87.425 112.859 87.1561 112.704 86.9328 112.508C86.705 112.316 86.5272 112.086 86.3996 111.817C86.2766 111.544 86.2151 111.25 86.2151 110.936C86.2151 110.53 86.2948 110.172 86.4543 109.862C86.6184 109.548 86.8554 109.288 87.1653 109.083C87.4524 108.892 87.8056 108.746 88.2248 108.646C88.6487 108.545 89.1272 108.495 89.6604 108.495H90.8498V107.996C90.8498 107.805 90.8156 107.632 90.7473 107.477C90.6835 107.322 90.5901 107.187 90.467 107.073C90.3348 106.959 90.1731 106.873 89.9817 106.813C89.7948 106.75 89.5783 106.718 89.3322 106.718C89.1089 106.718 88.913 106.745 88.7444 106.8C88.5803 106.854 88.4436 106.93 88.3342 107.025C88.2248 107.112 88.1428 107.219 88.0881 107.347C88.038 107.47 88.0129 107.602 88.0129 107.743H86.3723C86.3768 107.447 86.4475 107.162 86.5842 106.889C86.7209 106.615 86.9214 106.374 87.1858 106.164C87.441 105.95 87.7554 105.781 88.1291 105.658C88.5074 105.531 88.938 105.467 89.4211 105.467C89.8541 105.467 90.2574 105.521 90.6311 105.631C91.0093 105.736 91.3352 105.893 91.6086 106.103C91.882 106.312 92.0962 106.579 92.2512 106.902C92.4061 107.221 92.4836 107.59 92.4836 108.01V111.298C92.4836 111.631 92.5064 111.931 92.552 112.2C92.6021 112.465 92.6727 112.692 92.7639 112.884V113H91.0959ZM89.1067 111.824C89.3209 111.824 89.5191 111.797 89.7014 111.742C89.8882 111.688 90.0569 111.617 90.2072 111.53C90.3576 111.444 90.4875 111.346 90.5969 111.236C90.7063 111.127 90.7906 111.013 90.8498 110.895V109.527H89.7971C89.4416 109.527 89.134 109.562 88.8742 109.63C88.6145 109.694 88.4071 109.787 88.2522 109.91C88.1154 110.015 88.0129 110.14 87.9445 110.286C87.8807 110.432 87.8488 110.596 87.8488 110.778C87.8488 110.929 87.8762 111.07 87.9309 111.202C87.9856 111.33 88.0653 111.439 88.1701 111.53C88.275 111.621 88.4048 111.694 88.5598 111.749C88.7147 111.799 88.897 111.824 89.1067 111.824Z" fill="black"/>
<defs>
<filter id="filter0_d_59_378" x="16" y="0" width="80" height="80" filterUnits="userSpaceOnUse" color-interpolation-filters="sRGB">
<feFlood flood-opacity="0" result="BackgroundImageFix"/>
<feColorMatrix in="SourceAlpha" type="matrix" values="0 0 0 0 0 0 0 0 0 0 0 0 0 0 0 0 0 0 127 0" result="hardAlpha"/>
<feOffset/>
<feGaussianBlur stdDeviation="7.5"/>
<feComposite in2="hardAlpha" operator="out"/>
<feColorMatrix type="matrix" values="0 0 0 0 0.141176 0 0 0 0 0.141176 0 0 0 0 0.141176 0 0 0 0.8 0"/>
<feBlend mode="normal" in2="BackgroundImageFix" result="effect1_dropShadow_59_378"/>
<feBlend mode="normal" in="SourceGraphic" in2="effect1_dropShadow_59_378" result="shape"/>
</filter>
</defs>
</svg>
