<svg width="23" height="23" viewBox="0 0 23 23" fill="none" xmlns="http://www.w3.org/2000/svg">
<path d="M12.5 0C13.1875 0 13.75 0.5625 13.75 1.25H18.75C19.4375 1.25 20 1.8125 20 2.5V20H21.25C21.9375 20 22.5 20.5625 22.5 21.25C22.5 21.9375 21.9375 22.5 21.25 22.5H18.75C18.0625 22.5 17.5 21.9375 17.5 21.25V3.75H13.75V21.25C13.75 21.9375 13.1875 22.5 12.5 22.5H1.25C0.5625 22.5 0 21.9375 0 21.25C0 20.5625 0.5625 20 1.25 20H2.5V1.25C2.5 0.5625 3.0625 0 3.75 0H12.5ZM8.75 10V12.5H11.25V10H8.75Z" fill="#242424"/>
</svg>
