<svg width="150" height="410" viewBox="0 0 150 410" fill="none" xmlns="http://www.w3.org/2000/svg" xmlns:xlink="http://www.w3.org/1999/xlink">
<g filter="url(#filter0_d_2305_25819)">
<path d="M140 4.99999C140 2.23856 137.761 0 135 0H15C12.2386 0 10 2.23858 10 5V384.172C10 387.236 12.7315 389.58 15.7603 389.114L74.2397 380.117C74.7436 380.039 75.2564 380.039 75.7603 380.117L134.24 389.114C137.269 389.58 140 387.236 140 384.172V4.99999Z" fill="#005B33"/>
</g>
<defs>
<filter id="filter0_d_2305_25819" x="0" y="0" width="150" height="409.173" filterUnits="userSpaceOnUse" color-interpolation-filters="sRGB">
<feFlood flood-opacity="0" result="BackgroundImageFix"/>
<feColorMatrix in="SourceAlpha" type="matrix" values="0 0 0 0 0 0 0 0 0 0 0 0 0 0 0 0 0 0 127 0" result="hardAlpha"/>
<feOffset dy="10"/>
<feGaussianBlur stdDeviation="5"/>
<feComposite in2="hardAlpha" operator="out"/>
<feColorMatrix type="matrix" values="0 0 0 0 0.141176 0 0 0 0 0.141176 0 0 0 0 0.141176 0 0 0 0.3 0"/>
<feBlend mode="normal" in2="BackgroundImageFix" result="effect1_dropShadow_2305_25819"/>
<feBlend mode="normal" in="SourceGraphic" in2="effect1_dropShadow_2305_25819" result="shape"/>
</filter>
<g id="stroke0_2305_25819" data-figma-scatter-ref="stroke0_2305_25819_ref" data-figma-scatter="f0.25_w0_aj95_sj0_r45_s14420632460363555279_sw10">
</g>
<path id="stroke0_2305_25819_ref" d="M74.2397 380.117L15.7603 389.114C12.7315 389.58 10 387.236 10 384.172V5C10 2.23858 12.2386 0 15 0H135C137.761 0 140 2.23856 140 4.99999V384.172C140 387.236 137.269 389.58 134.24 389.114L75.7603 380.117C75.2564 380.039 74.7436 380.039 74.2397 380.117Z"/>
</defs>
</svg>
