<svg width="22" height="17" viewBox="0 0 22 17" fill="none" xmlns="http://www.w3.org/2000/svg">
<path d="M5 0C5.6875 0 6.25 0.5625 6.25 1.25V15C6.25 15.6875 5.6875 16.25 5 16.25H1.25C0.5625 16.25 0 15.6875 0 15V1.25C0 0.5625 0.5625 0 1.25 0H5ZM12.5 0C13.1875 0 13.75 0.5625 13.75 1.25V15C13.75 15.6875 13.1875 16.25 12.5 16.25H8.75C8.0625 16.25 7.5 15.6875 7.5 15V1.25C7.5 0.5625 8.0625 0 8.75 0H12.5ZM20 0C20.6875 0 21.25 0.5625 21.25 1.25V15C21.25 15.6875 20.6875 16.25 20 16.25H16.25C15.5625 16.25 15 15.6875 15 15V1.25C15 0.5625 15.5625 0 16.25 0H20Z" fill="#242424"/>
</svg>
