<svg width="15" height="15" viewBox="0 0 15 15" fill="none" xmlns="http://www.w3.org/2000/svg">
<path fill-rule="evenodd" clip-rule="evenodd" d="M0.0421848 6.10078C-0.391149 2.57578 2.57578 -0.391149 6.10078 0.0421848C8.43409 0.325534 10.3673 2.17573 10.759 4.49238C11.0423 6.18405 10.5256 7.77591 9.52558 8.94258L9.75898 9.16718H10.4172L13.9592 12.717C14.3008 13.0586 14.3006 13.6087 13.9592 13.9504L13.9504 13.9592C13.6087 14.3006 13.0586 14.3008 12.717 13.9592L9.16718 10.4172V9.75898L8.94258 9.52558C7.77591 10.5256 6.18405 11.0423 4.49238 10.759C2.17573 10.3673 0.325534 8.43409 0.0421848 6.10078ZM5.41621 1.66718C3.34121 1.66718 1.66621 3.34218 1.66621 5.41718C1.66621 7.49218 3.34121 9.16718 5.41621 9.16718C7.49121 9.16718 9.16621 7.49218 9.16621 5.41718C9.16621 3.34218 7.49121 1.66718 5.41621 1.66718Z" fill="#242424"/>
</svg>
