<svg xmlns="http://www.w3.org/2000/svg" preserveAspectRatio="none" width="100%" height="100%" overflow="visible" style="display: block;" viewBox="0 0 185.719 268.142" fill="none">
<g id="Frame 1768">
<path id="Vector 1014" d="M1.00014 7.47085C38.0954 2.58784 123.415 -4.24836 167.929 7.47085" stroke="#9B9B9B" stroke-width="2" stroke-linecap="round"/>
<path id="Vector 1015" d="M1.00014 43.1167C40.0255 38.4676 131.405 32.3345 184.719 44.9944" stroke="#9B9B9B" stroke-width="2" stroke-linecap="round"/>
<path id="Vector 1016" d="M1.00014 81.8709C35.3549 76.6817 119.632 69.4168 181.901 81.8709" stroke="#9B9B9B" stroke-width="2" stroke-linecap="round"/>
<path id="Vector 1018" d="M1.00014 117.517C40.0255 112.868 131.405 106.735 184.719 119.394" stroke="#9B9B9B" stroke-width="2" stroke-linecap="round"/>
<path id="Vector 1019" d="M1.00014 156.271C35.3549 151.082 119.632 143.817 181.901 156.271" stroke="#9B9B9B" stroke-width="2" stroke-linecap="round"/>
<path id="Vector 1020" d="M1.00014 192.742C38.0954 187.859 123.415 181.023 167.929 192.742" stroke="#9B9B9B" stroke-width="2" stroke-linecap="round"/>
<path id="Vector 1021" d="M1.00014 228.388C40.0255 223.739 131.405 217.605 184.719 230.265" stroke="#9B9B9B" stroke-width="2" stroke-linecap="round"/>
<path id="Vector 1022" d="M1.00014 267.142C35.3549 261.953 119.632 254.688 181.901 267.142" stroke="#9B9B9B" stroke-width="2" stroke-linecap="round"/>
</g>
</svg>
