<svg width="80" height="80" viewBox="0 0 80 80" fill="none" xmlns="http://www.w3.org/2000/svg">
<path d="M37.1982 9.7875C38.4982 7.82083 41.3991 7.82083 42.7324 9.7875L57.3652 31.6869H73.332C75.1654 31.6869 76.665 33.1876 76.665 35.0209L76.5654 35.9203L68.0986 66.8207C67.2986 69.6206 64.7317 71.6869 61.665 71.6869H18.332C15.2654 71.6869 12.6983 69.6207 11.9316 66.8207L3.46582 35.9203C3.36588 35.6205 3.33206 35.3208 3.33203 35.0209C3.33203 33.1877 4.83185 31.6871 6.66504 31.6869H22.5654L37.1982 9.7875ZM39.999 45.0209C36.3324 45.0209 33.332 48.0212 33.332 51.6879C33.332 55.3546 36.3324 58.3549 39.999 58.3549C43.6655 58.3547 46.665 55.3544 46.665 51.6879C46.665 48.0213 43.6655 45.0211 39.999 45.0209ZM30.5977 31.6869H49.3311L39.9639 17.6537L30.5977 31.6869Z" fill="#005B33"/>
</svg>
