<svg width="27" height="21" viewBox="0 0 27 21" fill="none" xmlns="http://www.w3.org/2000/svg">
<path d="M13.5035 0C9.71602 0 6.6832 1.725 4.47539 3.77813C2.28164 5.81719 0.814453 8.25 0.116016 9.92344C-0.0386719 10.2938 -0.0386719 10.7062 0.116016 11.0766C0.814453 12.75 2.28164 15.1875 4.47539 17.2219C6.6832 19.2703 9.71602 21 13.5035 21C17.291 21 20.3238 19.275 22.5316 17.2219C24.7254 15.1828 26.1926 12.75 26.891 11.0766C27.0457 10.7062 27.0457 10.2938 26.891 9.92344C26.1926 8.25 24.7254 5.8125 22.5316 3.77813C20.3238 1.72969 17.291 0 13.5035 0ZM6.75352 10.5C6.75352 6.77344 9.77695 3.75 13.5035 3.75C17.2301 3.75 20.2535 6.77344 20.2535 10.5C20.2535 14.2266 17.2301 17.25 13.5035 17.25C9.77695 17.25 6.75352 14.2266 6.75352 10.5ZM13.5035 7.5C13.5035 9.15469 12.1582 10.5 10.5035 10.5C9.96445 10.5 9.4582 10.3594 9.01758 10.1063C8.9707 10.6172 9.01289 11.1422 9.15351 11.6625C9.7957 14.0625 12.266 15.4875 14.666 14.8453C17.066 14.2031 18.491 11.7328 17.8488 9.33281C17.277 7.19063 15.2473 5.82656 13.1098 6.01406C13.3582 6.45 13.5035 6.95625 13.5035 7.5Z" fill="#242424" fill-opacity="0.8"/>
</svg>
